<mxfile host="app.diagrams.net" agent="Mozilla/5.0 (Macintosh; Intel Mac OS X 10_15_7) AppleWebKit/537.36 (KHTML, like Gecko) Chrome/131.0.0.0 Safari/537.36" version="25.0.3">
  <diagram name="Page-1" id="r3_FlYswNjQTuqn9ta-d">
    <mxGraphModel dx="1837" dy="1734" grid="1" gridSize="10" guides="1" tooltips="1" connect="1" arrows="1" fold="1" page="1" pageScale="1" pageWidth="827" pageHeight="1169" math="0" shadow="0">
      <root>
        <mxCell id="0" />
        <mxCell id="1" parent="0" />
        <mxCell id="eNpeNqmBTJNlyL9ggos7-25" value="" style="sketch=0;outlineConnect=0;fontColor=#232F3E;gradientColor=none;fillColor=#232F3D;strokeColor=none;dashed=0;verticalLabelPosition=bottom;verticalAlign=top;align=center;html=1;fontSize=12;fontStyle=0;aspect=fixed;pointerEvents=1;shape=mxgraph.aws4.user;fontFamily=Helvetica;" parent="1" vertex="1">
          <mxGeometry x="-200" y="100" width="60" height="60" as="geometry" />
        </mxCell>
        <mxCell id="eNpeNqmBTJNlyL9ggos7-29" style="rounded=0;orthogonalLoop=1;jettySize=auto;html=1;entryX=0;entryY=0.5;entryDx=0;entryDy=0;entryPerimeter=0;fontFamily=Helvetica;fontSize=12;fontColor=#232F3E;fontStyle=0;strokeColor=#009900;edgeStyle=orthogonalEdgeStyle;" parent="1" target="eNpeNqmBTJNlyL9ggos7-28" edge="1">
          <mxGeometry relative="1" as="geometry">
            <mxPoint x="10" y="120" as="sourcePoint" />
          </mxGeometry>
        </mxCell>
        <mxCell id="eNpeNqmBTJNlyL9ggos7-44" value="" style="group" parent="1" vertex="1" connectable="0">
          <mxGeometry x="556" y="201" width="120" height="89" as="geometry" />
        </mxCell>
        <mxCell id="eNpeNqmBTJNlyL9ggos7-40" value="" style="sketch=0;points=[[0,0,0],[0.25,0,0],[0.5,0,0],[0.75,0,0],[1,0,0],[0,1,0],[0.25,1,0],[0.5,1,0],[0.75,1,0],[1,1,0],[0,0.25,0],[0,0.5,0],[0,0.75,0],[1,0.25,0],[1,0.5,0],[1,0.75,0]];outlineConnect=0;fontColor=#232F3E;fillColor=#8C4FFF;strokeColor=#ffffff;dashed=0;verticalLabelPosition=bottom;verticalAlign=top;align=center;html=1;fontSize=12;fontStyle=0;aspect=fixed;shape=mxgraph.aws4.resourceIcon;resIcon=mxgraph.aws4.redshift;fontFamily=Helvetica;" parent="eNpeNqmBTJNlyL9ggos7-44" vertex="1">
          <mxGeometry x="30.5" width="59" height="59" as="geometry" />
        </mxCell>
        <mxCell id="eNpeNqmBTJNlyL9ggos7-41" value="Redshift serveless" style="text;html=1;align=center;verticalAlign=middle;resizable=0;points=[];autosize=1;strokeColor=none;fillColor=none;fontFamily=Helvetica;fontSize=12;fontColor=#232F3E;fontStyle=0;" parent="eNpeNqmBTJNlyL9ggos7-44" vertex="1">
          <mxGeometry y="59" width="120" height="30" as="geometry" />
        </mxCell>
        <mxCell id="eNpeNqmBTJNlyL9ggos7-47" value="" style="group" parent="1" vertex="1" connectable="0">
          <mxGeometry x="676" y="-40" width="124" height="599.5" as="geometry" />
        </mxCell>
        <mxCell id="eNpeNqmBTJNlyL9ggos7-5" value="" style="sketch=0;points=[[0,0,0],[0.25,0,0],[0.5,0,0],[0.75,0,0],[1,0,0],[0,1,0],[0.25,1,0],[0.5,1,0],[0.75,1,0],[1,1,0],[0,0.25,0],[0,0.5,0],[0,0.75,0],[1,0.25,0],[1,0.5,0],[1,0.75,0]];outlineConnect=0;fontColor=#232F3E;fillColor=#8C4FFF;strokeColor=#ffffff;dashed=0;verticalLabelPosition=bottom;verticalAlign=top;align=center;html=1;fontSize=12;fontStyle=0;aspect=fixed;shape=mxgraph.aws4.resourceIcon;resIcon=mxgraph.aws4.quicksight;" parent="eNpeNqmBTJNlyL9ggos7-47" vertex="1">
          <mxGeometry x="10" y="170" width="60" height="60" as="geometry" />
        </mxCell>
        <mxCell id="eNpeNqmBTJNlyL9ggos7-46" value="QuickSignt" style="text;html=1;align=center;verticalAlign=middle;resizable=0;points=[];autosize=1;strokeColor=none;fillColor=none;fontFamily=Helvetica;fontSize=12;fontColor=#232F3E;fontStyle=0;" parent="eNpeNqmBTJNlyL9ggos7-47" vertex="1">
          <mxGeometry y="230" width="80" height="30" as="geometry" />
        </mxCell>
        <mxCell id="yrRZ3G2weJ_mrvw0urBg-5" value="" style="endArrow=none;dashed=1;html=1;rounded=0;" parent="eNpeNqmBTJNlyL9ggos7-47" edge="1">
          <mxGeometry width="50" height="50" relative="1" as="geometry">
            <mxPoint x="80" y="330" as="sourcePoint" />
            <mxPoint x="80" y="10" as="targetPoint" />
          </mxGeometry>
        </mxCell>
        <mxCell id="yrRZ3G2weJ_mrvw0urBg-49" value="" style="endArrow=classic;html=1;rounded=0;strokeColor=#009900;" parent="eNpeNqmBTJNlyL9ggos7-47" edge="1">
          <mxGeometry width="50" height="50" relative="1" as="geometry">
            <mxPoint x="-70" y="374" as="sourcePoint" />
            <mxPoint x="-10" y="374" as="targetPoint" />
          </mxGeometry>
        </mxCell>
        <mxCell id="yrRZ3G2weJ_mrvw0urBg-50" value="&lt;font color=&quot;#009900&quot;&gt;原始评论数据存储&lt;/font&gt;" style="text;html=1;align=center;verticalAlign=middle;resizable=0;points=[];autosize=1;strokeColor=none;fillColor=none;" parent="eNpeNqmBTJNlyL9ggos7-47" vertex="1">
          <mxGeometry x="-19" y="360" width="120" height="30" as="geometry" />
        </mxCell>
        <mxCell id="yrRZ3G2weJ_mrvw0urBg-51" value="" style="endArrow=classic;html=1;rounded=0;strokeColor=#FF8000;" parent="eNpeNqmBTJNlyL9ggos7-47" edge="1">
          <mxGeometry width="50" height="50" relative="1" as="geometry">
            <mxPoint x="-70" y="404" as="sourcePoint" />
            <mxPoint x="-10" y="404" as="targetPoint" />
          </mxGeometry>
        </mxCell>
        <mxCell id="yrRZ3G2weJ_mrvw0urBg-52" value="&lt;font color=&quot;#ff8000&quot;&gt;评论数据获取分类词&lt;/font&gt;" style="text;html=1;align=center;verticalAlign=middle;resizable=0;points=[];autosize=1;strokeColor=none;fillColor=none;" parent="eNpeNqmBTJNlyL9ggos7-47" vertex="1">
          <mxGeometry x="-17" y="390" width="130" height="30" as="geometry" />
        </mxCell>
        <mxCell id="yrRZ3G2weJ_mrvw0urBg-53" value="" style="endArrow=classic;html=1;rounded=0;strokeColor=#3333FF;" parent="eNpeNqmBTJNlyL9ggos7-47" edge="1">
          <mxGeometry width="50" height="50" relative="1" as="geometry">
            <mxPoint x="-70" y="433.5" as="sourcePoint" />
            <mxPoint x="-10" y="433.5" as="targetPoint" />
          </mxGeometry>
        </mxCell>
        <mxCell id="yrRZ3G2weJ_mrvw0urBg-54" value="&lt;font color=&quot;#3333ff&quot;&gt;根据分类词进行再分析&lt;/font&gt;" style="text;html=1;align=center;verticalAlign=middle;resizable=0;points=[];autosize=1;strokeColor=none;fillColor=none;" parent="eNpeNqmBTJNlyL9ggos7-47" vertex="1">
          <mxGeometry x="-16" y="419.5" width="140" height="30" as="geometry" />
        </mxCell>
        <mxCell id="yrRZ3G2weJ_mrvw0urBg-55" value="" style="endArrow=classic;html=1;rounded=0;strokeColor=#000000;dashed=1;" parent="eNpeNqmBTJNlyL9ggos7-47" edge="1">
          <mxGeometry width="50" height="50" relative="1" as="geometry">
            <mxPoint x="-70" y="459" as="sourcePoint" />
            <mxPoint x="-10" y="459" as="targetPoint" />
          </mxGeometry>
        </mxCell>
        <mxCell id="yrRZ3G2weJ_mrvw0urBg-56" value="长期规划" style="text;html=1;align=center;verticalAlign=middle;resizable=0;points=[];autosize=1;strokeColor=none;fillColor=none;" parent="eNpeNqmBTJNlyL9ggos7-47" vertex="1">
          <mxGeometry x="-16" y="444" width="70" height="30" as="geometry" />
        </mxCell>
        <mxCell id="eNpeNqmBTJNlyL9ggos7-66" value="" style="group" parent="1" vertex="1" connectable="0">
          <mxGeometry x="426" y="116" width="80" height="100" as="geometry" />
        </mxCell>
        <mxCell id="eNpeNqmBTJNlyL9ggos7-2" value="" style="sketch=0;points=[[0,0,0],[0.25,0,0],[0.5,0,0],[0.75,0,0],[1,0,0],[0,1,0],[0.25,1,0],[0.5,1,0],[0.75,1,0],[1,1,0],[0,0.25,0],[0,0.5,0],[0,0.75,0],[1,0.25,0],[1,0.5,0],[1,0.75,0]];outlineConnect=0;fontColor=#232F3E;fillColor=#01A88D;strokeColor=#ffffff;dashed=0;verticalLabelPosition=bottom;verticalAlign=top;align=center;html=1;fontSize=12;fontStyle=0;aspect=fixed;shape=mxgraph.aws4.resourceIcon;resIcon=mxgraph.aws4.bedrock;" parent="eNpeNqmBTJNlyL9ggos7-66" vertex="1">
          <mxGeometry x="5" width="60" height="60" as="geometry" />
        </mxCell>
        <mxCell id="eNpeNqmBTJNlyL9ggos7-65" value="Bedrock&lt;div&gt;&lt;br/&gt;&lt;/div&gt;" style="text;html=1;align=center;verticalAlign=middle;resizable=0;points=[];autosize=1;strokeColor=none;fillColor=none;fontFamily=Helvetica;fontSize=12;fontColor=#232F3E;fontStyle=0;" parent="eNpeNqmBTJNlyL9ggos7-66" vertex="1">
          <mxGeometry y="60" width="70" height="40" as="geometry" />
        </mxCell>
        <mxCell id="yrRZ3G2weJ_mrvw0urBg-57" value="&lt;b style=&quot;color: rgb(35, 47, 62);&quot;&gt;Category&lt;/b&gt;" style="text;html=1;align=center;verticalAlign=middle;resizable=0;points=[];autosize=1;strokeColor=none;fillColor=none;" parent="eNpeNqmBTJNlyL9ggos7-66" vertex="1">
          <mxGeometry x="-5" y="74" width="80" height="30" as="geometry" />
        </mxCell>
        <mxCell id="eNpeNqmBTJNlyL9ggos7-69" value="" style="group" parent="1" vertex="1" connectable="0">
          <mxGeometry x="196" y="-40" width="70" height="90" as="geometry" />
        </mxCell>
        <mxCell id="eNpeNqmBTJNlyL9ggos7-28" value="" style="sketch=0;points=[[0,0,0],[0.25,0,0],[0.5,0,0],[0.75,0,0],[1,0,0],[0,1,0],[0.25,1,0],[0.5,1,0],[0.75,1,0],[1,1,0],[0,0.25,0],[0,0.5,0],[0,0.75,0],[1,0.25,0],[1,0.5,0],[1,0.75,0]];outlineConnect=0;fontColor=#232F3E;fillColor=#ED7100;strokeColor=#ffffff;dashed=0;verticalLabelPosition=bottom;verticalAlign=top;align=center;html=1;fontSize=12;fontStyle=0;aspect=fixed;shape=mxgraph.aws4.resourceIcon;resIcon=mxgraph.aws4.lambda;" parent="eNpeNqmBTJNlyL9ggos7-69" vertex="1">
          <mxGeometry x="61" width="60" height="60" as="geometry" />
        </mxCell>
        <mxCell id="eNpeNqmBTJNlyL9ggos7-68" value="Lambda" style="text;html=1;align=center;verticalAlign=middle;resizable=0;points=[];autosize=1;strokeColor=none;fillColor=none;fontFamily=Helvetica;fontSize=12;fontColor=#232F3E;fontStyle=0;" parent="eNpeNqmBTJNlyL9ggos7-69" vertex="1">
          <mxGeometry y="60" width="70" height="30" as="geometry" />
        </mxCell>
        <mxCell id="eNpeNqmBTJNlyL9ggos7-72" value="" style="group" parent="1" vertex="1" connectable="0">
          <mxGeometry x="418" y="220" width="80" height="89" as="geometry" />
        </mxCell>
        <mxCell id="eNpeNqmBTJNlyL9ggos7-9" value="" style="sketch=0;points=[[0,0,0],[0.25,0,0],[0.5,0,0],[0.75,0,0],[1,0,0],[0,1,0],[0.25,1,0],[0.5,1,0],[0.75,1,0],[1,1,0],[0,0.25,0],[0,0.5,0],[0,0.75,0],[1,0.25,0],[1,0.5,0],[1,0.75,0]];outlineConnect=0;fontColor=#232F3E;fillColor=#C925D1;strokeColor=#ffffff;dashed=0;verticalLabelPosition=bottom;verticalAlign=top;align=center;html=1;fontSize=12;fontStyle=0;aspect=fixed;shape=mxgraph.aws4.resourceIcon;resIcon=mxgraph.aws4.dynamodb;" parent="eNpeNqmBTJNlyL9ggos7-72" vertex="1">
          <mxGeometry x="9.5" y="30" width="59" height="59" as="geometry" />
        </mxCell>
        <mxCell id="eNpeNqmBTJNlyL9ggos7-71" value="DynamoDB" style="text;html=1;align=center;verticalAlign=middle;resizable=0;points=[];autosize=1;strokeColor=none;fillColor=none;fontFamily=Helvetica;fontSize=12;fontColor=#232F3E;fontStyle=0;" parent="eNpeNqmBTJNlyL9ggos7-72" vertex="1">
          <mxGeometry width="80" height="30" as="geometry" />
        </mxCell>
        <mxCell id="eNpeNqmBTJNlyL9ggos7-81" value="" style="group" parent="1" vertex="1" connectable="0">
          <mxGeometry x="100" y="369" width="60" height="90" as="geometry" />
        </mxCell>
        <mxCell id="eNpeNqmBTJNlyL9ggos7-82" value="" style="sketch=0;points=[[0,0,0],[0.25,0,0],[0.5,0,0],[0.75,0,0],[1,0,0],[0,1,0],[0.25,1,0],[0.5,1,0],[0.75,1,0],[1,1,0],[0,0.25,0],[0,0.5,0],[0,0.75,0],[1,0.25,0],[1,0.5,0],[1,0.75,0]];outlineConnect=0;fontColor=#232F3E;fillColor=#7AA116;strokeColor=#ffffff;dashed=0;verticalLabelPosition=bottom;verticalAlign=top;align=center;html=1;fontSize=12;fontStyle=0;aspect=fixed;shape=mxgraph.aws4.resourceIcon;resIcon=mxgraph.aws4.s3;" parent="eNpeNqmBTJNlyL9ggos7-81" vertex="1">
          <mxGeometry width="60" height="60" as="geometry" />
        </mxCell>
        <mxCell id="eNpeNqmBTJNlyL9ggos7-83" value="S3" style="text;html=1;align=center;verticalAlign=middle;resizable=0;points=[];autosize=1;strokeColor=none;fillColor=none;fontFamily=Helvetica;fontSize=12;fontColor=#232F3E;fontStyle=0;" parent="eNpeNqmBTJNlyL9ggos7-81" vertex="1">
          <mxGeometry x="10.5" y="60" width="40" height="30" as="geometry" />
        </mxCell>
        <mxCell id="eNpeNqmBTJNlyL9ggos7-84" style="edgeStyle=orthogonalEdgeStyle;rounded=0;orthogonalLoop=1;jettySize=auto;html=1;exitX=0.5;exitY=1;exitDx=0;exitDy=0;exitPerimeter=0;fontFamily=Helvetica;fontSize=12;fontColor=#232F3E;fontStyle=0;" parent="eNpeNqmBTJNlyL9ggos7-81" source="eNpeNqmBTJNlyL9ggos7-82" target="eNpeNqmBTJNlyL9ggos7-82" edge="1">
          <mxGeometry relative="1" as="geometry" />
        </mxCell>
        <mxCell id="eNpeNqmBTJNlyL9ggos7-86" value="" style="group" parent="1" vertex="1" connectable="0">
          <mxGeometry x="99" y="220" width="70" height="90" as="geometry" />
        </mxCell>
        <mxCell id="eNpeNqmBTJNlyL9ggos7-87" value="" style="sketch=0;points=[[0,0,0],[0.25,0,0],[0.5,0,0],[0.75,0,0],[1,0,0],[0,1,0],[0.25,1,0],[0.5,1,0],[0.75,1,0],[1,1,0],[0,0.25,0],[0,0.5,0],[0,0.75,0],[1,0.25,0],[1,0.5,0],[1,0.75,0]];outlineConnect=0;fontColor=#232F3E;fillColor=#ED7100;strokeColor=#ffffff;dashed=0;verticalLabelPosition=bottom;verticalAlign=top;align=center;html=1;fontSize=12;fontStyle=0;aspect=fixed;shape=mxgraph.aws4.resourceIcon;resIcon=mxgraph.aws4.lambda;" parent="eNpeNqmBTJNlyL9ggos7-86" vertex="1">
          <mxGeometry x="5" width="60" height="60" as="geometry" />
        </mxCell>
        <mxCell id="eNpeNqmBTJNlyL9ggos7-88" value="Lambda" style="text;html=1;align=center;verticalAlign=middle;resizable=0;points=[];autosize=1;strokeColor=none;fillColor=none;fontFamily=Helvetica;fontSize=12;fontColor=#232F3E;fontStyle=0;" parent="eNpeNqmBTJNlyL9ggos7-86" vertex="1">
          <mxGeometry y="60" width="70" height="30" as="geometry" />
        </mxCell>
        <mxCell id="eNpeNqmBTJNlyL9ggos7-95" style="edgeStyle=orthogonalEdgeStyle;rounded=0;orthogonalLoop=1;jettySize=auto;html=1;exitX=1;exitY=0.25;exitDx=0;exitDy=0;exitPerimeter=0;entryX=0;entryY=0.5;entryDx=0;entryDy=0;entryPerimeter=0;fontFamily=Helvetica;fontSize=12;fontColor=#232F3E;fontStyle=0;dashed=1;" parent="1" source="eNpeNqmBTJNlyL9ggos7-9" target="eNpeNqmBTJNlyL9ggos7-40" edge="1">
          <mxGeometry relative="1" as="geometry" />
        </mxCell>
        <mxCell id="eNpeNqmBTJNlyL9ggos7-105" style="edgeStyle=orthogonalEdgeStyle;rounded=0;orthogonalLoop=1;jettySize=auto;html=1;exitX=1;exitY=0.5;exitDx=0;exitDy=0;exitPerimeter=0;entryX=0;entryY=0.5;entryDx=0;entryDy=0;entryPerimeter=0;fontFamily=Helvetica;fontSize=12;fontColor=#232F3E;fontStyle=0;dashed=1;" parent="1" source="eNpeNqmBTJNlyL9ggos7-40" target="eNpeNqmBTJNlyL9ggos7-5" edge="1">
          <mxGeometry relative="1" as="geometry" />
        </mxCell>
        <mxCell id="eNpeNqmBTJNlyL9ggos7-106" style="edgeStyle=orthogonalEdgeStyle;rounded=0;orthogonalLoop=1;jettySize=auto;html=1;entryX=0;entryY=0.5;entryDx=0;entryDy=0;entryPerimeter=0;fontFamily=Helvetica;fontSize=12;fontColor=#232F3E;fontStyle=0;" parent="1" source="eNpeNqmBTJNlyL9ggos7-25" edge="1">
          <mxGeometry relative="1" as="geometry">
            <mxPoint x="-50" y="130" as="targetPoint" />
          </mxGeometry>
        </mxCell>
        <mxCell id="eNpeNqmBTJNlyL9ggos7-107" value="" style="group" parent="1" vertex="1" connectable="0">
          <mxGeometry x="582" y="50" width="105" height="90" as="geometry" />
        </mxCell>
        <mxCell id="eNpeNqmBTJNlyL9ggos7-108" value="" style="sketch=0;points=[[0,0,0],[0.25,0,0],[0.5,0,0],[0.75,0,0],[1,0,0],[0,1,0],[0.25,1,0],[0.5,1,0],[0.75,1,0],[1,1,0],[0,0.25,0],[0,0.5,0],[0,0.75,0],[1,0.25,0],[1,0.5,0],[1,0.75,0]];outlineConnect=0;fontColor=#232F3E;fillColor=#ED7100;strokeColor=#ffffff;dashed=0;verticalLabelPosition=bottom;verticalAlign=top;align=center;html=1;fontSize=12;fontStyle=0;aspect=fixed;shape=mxgraph.aws4.resourceIcon;resIcon=mxgraph.aws4.lambda;" parent="eNpeNqmBTJNlyL9ggos7-107" vertex="1">
          <mxGeometry x="5" width="60" height="60" as="geometry" />
        </mxCell>
        <mxCell id="eNpeNqmBTJNlyL9ggos7-109" value="Lambda" style="text;html=1;align=center;verticalAlign=middle;resizable=0;points=[];autosize=1;strokeColor=none;fillColor=none;fontFamily=Helvetica;fontSize=12;fontColor=#232F3E;fontStyle=0;" parent="eNpeNqmBTJNlyL9ggos7-107" vertex="1">
          <mxGeometry y="60" width="70" height="30" as="geometry" />
        </mxCell>
        <mxCell id="eNpeNqmBTJNlyL9ggos7-110" style="edgeStyle=entityRelationEdgeStyle;rounded=0;orthogonalLoop=1;jettySize=auto;html=1;exitX=1;exitY=0.5;exitDx=0;exitDy=0;exitPerimeter=0;entryX=0;entryY=0.5;entryDx=0;entryDy=0;entryPerimeter=0;fontFamily=Helvetica;fontSize=12;fontColor=#232F3E;fontStyle=0;strokeColor=#009900;" parent="1" source="eNpeNqmBTJNlyL9ggos7-28" target="eNpeNqmBTJNlyL9ggos7-1" edge="1">
          <mxGeometry relative="1" as="geometry" />
        </mxCell>
        <mxCell id="eNpeNqmBTJNlyL9ggos7-113" style="edgeStyle=orthogonalEdgeStyle;rounded=0;orthogonalLoop=1;jettySize=auto;html=1;exitX=0.5;exitY=1;exitDx=0;exitDy=0;exitPerimeter=0;entryX=0.5;entryY=0;entryDx=0;entryDy=0;entryPerimeter=0;fontFamily=Helvetica;fontSize=12;fontColor=#232F3E;fontStyle=0;dashed=1;" parent="1" source="eNpeNqmBTJNlyL9ggos7-108" target="eNpeNqmBTJNlyL9ggos7-40" edge="1">
          <mxGeometry relative="1" as="geometry" />
        </mxCell>
        <mxCell id="yrRZ3G2weJ_mrvw0urBg-4" value="" style="endArrow=none;dashed=1;html=1;rounded=0;" parent="1" edge="1">
          <mxGeometry width="50" height="50" relative="1" as="geometry">
            <mxPoint x="509" y="-32" as="sourcePoint" />
            <mxPoint x="760" y="-32" as="targetPoint" />
          </mxGeometry>
        </mxCell>
        <mxCell id="yrRZ3G2weJ_mrvw0urBg-6" value="" style="endArrow=none;dashed=1;html=1;rounded=0;" parent="1" edge="1">
          <mxGeometry width="50" height="50" relative="1" as="geometry">
            <mxPoint x="509" y="290" as="sourcePoint" />
            <mxPoint x="509" y="-30" as="targetPoint" />
            <Array as="points">
              <mxPoint x="509" y="120" />
            </Array>
          </mxGeometry>
        </mxCell>
        <mxCell id="eNpeNqmBTJNlyL9ggos7-73" value="" style="group" parent="1" vertex="1" connectable="0">
          <mxGeometry x="429" y="-40" width="60" height="90" as="geometry" />
        </mxCell>
        <mxCell id="eNpeNqmBTJNlyL9ggos7-1" value="" style="sketch=0;points=[[0,0,0],[0.25,0,0],[0.5,0,0],[0.75,0,0],[1,0,0],[0,1,0],[0.25,1,0],[0.5,1,0],[0.75,1,0],[1,1,0],[0,0.25,0],[0,0.5,0],[0,0.75,0],[1,0.25,0],[1,0.5,0],[1,0.75,0]];outlineConnect=0;fontColor=#232F3E;fillColor=#7AA116;strokeColor=#ffffff;dashed=0;verticalLabelPosition=bottom;verticalAlign=top;align=center;html=1;fontSize=12;fontStyle=0;aspect=fixed;shape=mxgraph.aws4.resourceIcon;resIcon=mxgraph.aws4.s3;" parent="eNpeNqmBTJNlyL9ggos7-73" vertex="1">
          <mxGeometry width="60" height="60" as="geometry" />
        </mxCell>
        <mxCell id="eNpeNqmBTJNlyL9ggos7-70" value="S3" style="text;html=1;align=center;verticalAlign=middle;resizable=0;points=[];autosize=1;strokeColor=none;fillColor=none;fontFamily=Helvetica;fontSize=12;fontColor=#232F3E;fontStyle=0;" parent="eNpeNqmBTJNlyL9ggos7-73" vertex="1">
          <mxGeometry x="10.5" y="60" width="40" height="30" as="geometry" />
        </mxCell>
        <mxCell id="eNpeNqmBTJNlyL9ggos7-100" value="" style="group" parent="1" vertex="1" connectable="0">
          <mxGeometry x="250" y="118" width="70" height="86" as="geometry" />
        </mxCell>
        <mxCell id="eNpeNqmBTJNlyL9ggos7-53" value="" style="sketch=0;points=[[0,0,0],[0.25,0,0],[0.5,0,0],[0.75,0,0],[1,0,0],[0,1,0],[0.25,1,0],[0.5,1,0],[0.75,1,0],[1,1,0],[0,0.25,0],[0,0.5,0],[0,0.75,0],[1,0.25,0],[1,0.5,0],[1,0.75,0]];outlineConnect=0;fontColor=#232F3E;fillColor=#ED7100;strokeColor=#ffffff;dashed=0;verticalLabelPosition=bottom;verticalAlign=top;align=center;html=1;fontSize=12;fontStyle=0;aspect=fixed;shape=mxgraph.aws4.resourceIcon;resIcon=mxgraph.aws4.lambda;" parent="eNpeNqmBTJNlyL9ggos7-100" vertex="1">
          <mxGeometry x="5" width="60" height="60" as="geometry" />
        </mxCell>
        <mxCell id="eNpeNqmBTJNlyL9ggos7-99" value="Lamdba" style="text;html=1;align=center;verticalAlign=middle;resizable=0;points=[];autosize=1;strokeColor=none;fillColor=none;fontFamily=Helvetica;fontSize=12;fontColor=#232F3E;fontStyle=0;" parent="eNpeNqmBTJNlyL9ggos7-100" vertex="1">
          <mxGeometry y="56" width="70" height="30" as="geometry" />
        </mxCell>
        <mxCell id="eNpeNqmBTJNlyL9ggos7-134" value="" style="sketch=0;points=[[0,0,0],[0.25,0,0],[0.5,0,0],[0.75,0,0],[1,0,0],[0,1,0],[0.25,1,0],[0.5,1,0],[0.75,1,0],[1,1,0],[0,0.25,0],[0,0.5,0],[0,0.75,0],[1,0.25,0],[1,0.5,0],[1,0.75,0]];outlineConnect=0;fontColor=#232F3E;fillColor=#E7157B;strokeColor=#ffffff;dashed=0;verticalLabelPosition=bottom;verticalAlign=top;align=center;html=1;fontSize=12;fontStyle=0;aspect=fixed;shape=mxgraph.aws4.resourceIcon;resIcon=mxgraph.aws4.api_gateway;fontFamily=Helvetica;" parent="1" vertex="1">
          <mxGeometry x="-50" y="93" width="57" height="57" as="geometry" />
        </mxCell>
        <mxCell id="eNpeNqmBTJNlyL9ggos7-135" value="API Gateway" style="text;html=1;align=center;verticalAlign=middle;resizable=0;points=[];autosize=1;strokeColor=none;fillColor=none;fontFamily=Helvetica;fontSize=12;fontColor=#232F3E;fontStyle=0;" parent="1" vertex="1">
          <mxGeometry x="-66.5" y="146" width="90" height="30" as="geometry" />
        </mxCell>
        <mxCell id="eNpeNqmBTJNlyL9ggos7-122" value="AWS Cloud" style="points=[[0,0],[0.25,0],[0.5,0],[0.75,0],[1,0],[1,0.25],[1,0.5],[1,0.75],[1,1],[0.75,1],[0.5,1],[0.25,1],[0,1],[0,0.75],[0,0.5],[0,0.25]];outlineConnect=0;gradientColor=none;html=1;whiteSpace=wrap;fontSize=12;fontStyle=0;container=0;pointerEvents=0;collapsible=0;recursiveResize=0;shape=mxgraph.aws4.group;grIcon=mxgraph.aws4.group_aws_cloud_alt;strokeColor=#232F3E;fillColor=none;verticalAlign=top;align=left;spacingLeft=30;fontColor=#232F3E;dashed=0;sketch=0;fontFamily=Helvetica;" parent="1" vertex="1">
          <mxGeometry x="-73" y="-50" width="880" height="500" as="geometry" />
        </mxCell>
        <mxCell id="yrRZ3G2weJ_mrvw0urBg-9" value="&lt;font color=&quot;#009900&quot;&gt;存储原始数据&lt;/font&gt;" style="text;html=1;align=center;verticalAlign=middle;resizable=0;points=[];autosize=1;strokeColor=none;fillColor=none;" parent="1" vertex="1">
          <mxGeometry x="309" y="-40" width="100" height="30" as="geometry" />
        </mxCell>
        <mxCell id="yrRZ3G2weJ_mrvw0urBg-10" value="&lt;font color=&quot;#ff8000&quot;&gt;读取原始数据&lt;/font&gt;" style="text;html=1;align=center;verticalAlign=middle;resizable=0;points=[];autosize=1;strokeColor=none;fillColor=none;" parent="1" vertex="1">
          <mxGeometry x="200" y="70" width="100" height="30" as="geometry" />
        </mxCell>
        <mxCell id="yrRZ3G2weJ_mrvw0urBg-13" value="&lt;font color=&quot;#ff8000&quot;&gt;调用模型&lt;/font&gt;" style="text;html=1;align=center;verticalAlign=middle;resizable=0;points=[];autosize=1;strokeColor=none;fillColor=none;" parent="1" vertex="1">
          <mxGeometry x="345" y="110" width="70" height="30" as="geometry" />
        </mxCell>
        <mxCell id="yrRZ3G2weJ_mrvw0urBg-15" value="&lt;font color=&quot;#ff8000&quot;&gt;获取分类词&lt;/font&gt;" style="text;html=1;align=center;verticalAlign=middle;resizable=0;points=[];autosize=1;strokeColor=none;fillColor=none;" parent="1" vertex="1">
          <mxGeometry x="340" y="130" width="80" height="30" as="geometry" />
        </mxCell>
        <mxCell id="yrRZ3G2weJ_mrvw0urBg-17" value="&lt;font color=&quot;#ff8000&quot;&gt;分类词存储&lt;/font&gt;" style="text;html=1;align=center;verticalAlign=middle;resizable=0;points=[];autosize=1;strokeColor=none;fillColor=none;" parent="1" vertex="1">
          <mxGeometry x="327" y="220" width="80" height="30" as="geometry" />
        </mxCell>
        <mxCell id="yrRZ3G2weJ_mrvw0urBg-19" value="&lt;font color=&quot;#3333ff&quot;&gt;获取分类词&lt;/font&gt;" style="text;html=1;align=center;verticalAlign=middle;resizable=0;points=[];autosize=1;strokeColor=none;fillColor=none;" parent="1" vertex="1">
          <mxGeometry x="274" y="272" width="80" height="30" as="geometry" />
        </mxCell>
        <mxCell id="yrRZ3G2weJ_mrvw0urBg-20" value="&lt;font color=&quot;#3333ff&quot;&gt;获取原始数据&lt;/font&gt;" style="text;html=1;align=center;verticalAlign=middle;resizable=0;points=[];autosize=1;strokeColor=none;fillColor=none;" parent="1" vertex="1">
          <mxGeometry x="40" y="330" width="100" height="30" as="geometry" />
        </mxCell>
        <mxCell id="yrRZ3G2weJ_mrvw0urBg-21" value="&lt;font color=&quot;#3333ff&quot;&gt;调用模型根据分类分析数据&lt;/font&gt;" style="text;html=1;align=center;verticalAlign=middle;resizable=0;points=[];autosize=1;strokeColor=none;fillColor=none;" parent="1" vertex="1">
          <mxGeometry x="213" y="365" width="170" height="30" as="geometry" />
        </mxCell>
        <mxCell id="yrRZ3G2weJ_mrvw0urBg-24" value="&lt;font color=&quot;#3333ff&quot;&gt;分析结果存储&lt;/font&gt;" style="text;html=1;align=center;verticalAlign=middle;resizable=0;points=[];autosize=1;strokeColor=none;fillColor=none;" parent="1" vertex="1">
          <mxGeometry x="402" y="405" width="100" height="30" as="geometry" />
        </mxCell>
        <mxCell id="yrRZ3G2weJ_mrvw0urBg-27" style="edgeStyle=orthogonalEdgeStyle;rounded=0;orthogonalLoop=1;jettySize=auto;html=1;exitX=0.5;exitY=0;exitDx=0;exitDy=0;exitPerimeter=0;entryX=0.138;entryY=-0.1;entryDx=0;entryDy=0;entryPerimeter=0;strokeColor=#FF8000;startArrow=classic;startFill=1;" parent="1" source="eNpeNqmBTJNlyL9ggos7-53" target="eNpeNqmBTJNlyL9ggos7-70" edge="1">
          <mxGeometry relative="1" as="geometry" />
        </mxCell>
        <mxCell id="yrRZ3G2weJ_mrvw0urBg-30" style="edgeStyle=orthogonalEdgeStyle;rounded=0;orthogonalLoop=1;jettySize=auto;html=1;exitX=1;exitY=0.25;exitDx=0;exitDy=0;exitPerimeter=0;entryX=0;entryY=0.25;entryDx=0;entryDy=0;entryPerimeter=0;strokeColor=#FF8000;curved=1;startArrow=classic;startFill=1;" parent="1" source="eNpeNqmBTJNlyL9ggos7-53" target="eNpeNqmBTJNlyL9ggos7-2" edge="1">
          <mxGeometry relative="1" as="geometry" />
        </mxCell>
        <mxCell id="yrRZ3G2weJ_mrvw0urBg-32" style="edgeStyle=orthogonalEdgeStyle;rounded=0;orthogonalLoop=1;jettySize=auto;html=1;exitX=1;exitY=0.75;exitDx=0;exitDy=0;exitPerimeter=0;entryX=0;entryY=0.25;entryDx=0;entryDy=0;entryPerimeter=0;strokeColor=#FF8000;" parent="1" source="eNpeNqmBTJNlyL9ggos7-53" target="eNpeNqmBTJNlyL9ggos7-9" edge="1">
          <mxGeometry relative="1" as="geometry" />
        </mxCell>
        <mxCell id="eNpeNqmBTJNlyL9ggos7-112" style="edgeStyle=orthogonalEdgeStyle;rounded=0;orthogonalLoop=1;jettySize=auto;html=1;exitX=1;exitY=0.5;exitDx=0;exitDy=0;exitPerimeter=0;fontFamily=Helvetica;fontSize=12;fontColor=#232F3E;fontStyle=0;entryX=0.5;entryY=0;entryDx=0;entryDy=0;entryPerimeter=0;dashed=1;" parent="1" source="eNpeNqmBTJNlyL9ggos7-1" target="eNpeNqmBTJNlyL9ggos7-108" edge="1">
          <mxGeometry relative="1" as="geometry">
            <mxPoint x="570" y="49" as="targetPoint" />
            <Array as="points">
              <mxPoint x="615" y="-10" />
            </Array>
          </mxGeometry>
        </mxCell>
        <mxCell id="yrRZ3G2weJ_mrvw0urBg-8" value="" style="endArrow=none;dashed=1;html=1;rounded=0;" parent="1" edge="1">
          <mxGeometry width="50" height="50" relative="1" as="geometry">
            <mxPoint x="510" y="290" as="sourcePoint" />
            <mxPoint x="760" y="290" as="targetPoint" />
          </mxGeometry>
        </mxCell>
        <mxCell id="yrRZ3G2weJ_mrvw0urBg-33" style="edgeStyle=orthogonalEdgeStyle;rounded=0;orthogonalLoop=1;jettySize=auto;html=1;entryX=0;entryY=0.5;entryDx=0;entryDy=0;entryPerimeter=0;strokeColor=#FF8000;" parent="1" edge="1">
          <mxGeometry relative="1" as="geometry">
            <mxPoint x="10" y="120" as="sourcePoint" />
            <mxPoint x="249" y="148" as="targetPoint" />
            <Array as="points">
              <mxPoint x="134" y="122" />
              <mxPoint x="134" y="148" />
            </Array>
          </mxGeometry>
        </mxCell>
        <mxCell id="yrRZ3G2weJ_mrvw0urBg-34" style="edgeStyle=orthogonalEdgeStyle;rounded=0;orthogonalLoop=1;jettySize=auto;html=1;exitX=0;exitY=0.5;exitDx=0;exitDy=0;exitPerimeter=0;entryX=1;entryY=0.5;entryDx=0;entryDy=0;entryPerimeter=0;endArrow=classic;endFill=1;startArrow=classic;startFill=1;strokeColor=#3333FF;" parent="1" source="eNpeNqmBTJNlyL9ggos7-9" target="eNpeNqmBTJNlyL9ggos7-87" edge="1">
          <mxGeometry relative="1" as="geometry">
            <mxPoint x="249.5" y="279.25" as="sourcePoint" />
          </mxGeometry>
        </mxCell>
        <mxCell id="yrRZ3G2weJ_mrvw0urBg-40" style="edgeStyle=orthogonalEdgeStyle;rounded=0;orthogonalLoop=1;jettySize=auto;html=1;exitX=0;exitY=0.5;exitDx=0;exitDy=0;exitPerimeter=0;startArrow=classic;startFill=1;strokeColor=#3333FF;entryX=0;entryY=0.5;entryDx=0;entryDy=0;entryPerimeter=0;" parent="1" source="eNpeNqmBTJNlyL9ggos7-87" target="eNpeNqmBTJNlyL9ggos7-82" edge="1">
          <mxGeometry relative="1" as="geometry" />
        </mxCell>
        <mxCell id="yrRZ3G2weJ_mrvw0urBg-42" style="edgeStyle=orthogonalEdgeStyle;rounded=0;orthogonalLoop=1;jettySize=auto;html=1;exitX=1;exitY=0.75;exitDx=0;exitDy=0;exitPerimeter=0;entryX=0;entryY=0.5;entryDx=0;entryDy=0;entryPerimeter=0;strokeColor=#3333FF;" parent="1" source="eNpeNqmBTJNlyL9ggos7-87" target="eNpeNqmBTJNlyL9ggos7-49" edge="1">
          <mxGeometry relative="1" as="geometry" />
        </mxCell>
        <mxCell id="eNpeNqmBTJNlyL9ggos7-49" value="" style="sketch=0;points=[[0,0,0],[0.25,0,0],[0.5,0,0],[0.75,0,0],[1,0,0],[0,1,0],[0.25,1,0],[0.5,1,0],[0.75,1,0],[1,1,0],[0,0.25,0],[0,0.5,0],[0,0.75,0],[1,0.25,0],[1,0.5,0],[1,0.75,0]];outlineConnect=0;fontColor=#232F3E;fillColor=#01A88D;strokeColor=#ffffff;dashed=0;verticalLabelPosition=bottom;verticalAlign=top;align=center;html=1;fontSize=12;fontStyle=0;aspect=fixed;shape=mxgraph.aws4.resourceIcon;resIcon=mxgraph.aws4.bedrock;" parent="1" vertex="1">
          <mxGeometry x="257" y="309" width="60" height="60" as="geometry" />
        </mxCell>
        <mxCell id="eNpeNqmBTJNlyL9ggos7-64" value="Bedrock&lt;div&gt;&lt;br/&gt;&lt;/div&gt;" style="text;html=1;align=center;verticalAlign=middle;resizable=0;points=[];autosize=1;strokeColor=none;fillColor=none;fontFamily=Helvetica;fontSize=12;fontColor=#232F3E;fontStyle=0;" parent="1" vertex="1">
          <mxGeometry x="309" y="325" width="70" height="40" as="geometry" />
        </mxCell>
        <mxCell id="yrRZ3G2weJ_mrvw0urBg-44" style="edgeStyle=orthogonalEdgeStyle;rounded=0;orthogonalLoop=1;jettySize=auto;html=1;exitX=1;exitY=0.5;exitDx=0;exitDy=0;exitPerimeter=0;entryX=0.5;entryY=0;entryDx=0;entryDy=0;entryPerimeter=0;strokeColor=#3333FF;" parent="1" source="eNpeNqmBTJNlyL9ggos7-134" target="eNpeNqmBTJNlyL9ggos7-87" edge="1">
          <mxGeometry relative="1" as="geometry" />
        </mxCell>
        <mxCell id="yrRZ3G2weJ_mrvw0urBg-47" style="edgeStyle=orthogonalEdgeStyle;rounded=0;orthogonalLoop=1;jettySize=auto;html=1;exitX=1;exitY=1;exitDx=0;exitDy=0;exitPerimeter=0;entryX=0.75;entryY=1;entryDx=0;entryDy=0;entryPerimeter=0;strokeColor=#3333FF;" parent="1" source="eNpeNqmBTJNlyL9ggos7-87" target="eNpeNqmBTJNlyL9ggos7-9" edge="1">
          <mxGeometry relative="1" as="geometry">
            <Array as="points">
              <mxPoint x="164" y="410" />
              <mxPoint x="472" y="410" />
            </Array>
          </mxGeometry>
        </mxCell>
        <mxCell id="yrRZ3G2weJ_mrvw0urBg-58" value="&lt;b style=&quot;color: rgb(35, 47, 62);&quot;&gt;Analyse&lt;/b&gt;" style="text;html=1;align=center;verticalAlign=middle;resizable=0;points=[];autosize=1;strokeColor=none;fillColor=none;" parent="1" vertex="1">
          <mxGeometry x="309" y="339" width="70" height="30" as="geometry" />
        </mxCell>
      </root>
    </mxGraphModel>
  </diagram>
</mxfile>
